<svg xmlns="http://www.w3.org/2000/svg" width="1200" height="630" viewBox="0 0 1200 630">
  <rect width="1200" height="630" fill="#1a1a1e"/>
  <rect width="84" height="630" fill="#e4572e"/>
  <g transform="translate(170, 215) scale(1.6)">
    <rect x="0" y="0" width="112" height="112" rx="24" fill="#1a1a1e" stroke="#faf6ef" stroke-opacity="0.16" stroke-width="2"/>
    <path d="M36 0 L24 0 A24 24 0 0 0 0 24 L0 88 A24 24 0 0 0 24 112 L36 112 Z" fill="#e4572e"/>
    <path d="M57.37 82.00H62.20V65.26C62.20 62.22 61.79 57.85 61.47 54.77H61.65L64.36 62.59L70.30 78.73H73.61L79.50 62.59L82.21 54.77H82.44C82.12 57.85 81.71 62.22 81.71 65.26V82.00H86.67V48.10H80.46L74.39 65.26C73.66 67.46 72.97 69.81 72.18 72.06H71.95C71.22 69.81 70.48 67.46 69.70 65.26L63.54 48.10H57.37Z" fill="#faf6ef"/>
  </g>
  <text x="410" y="330" font-family="Helvetica Neue, Helvetica, Arial, sans-serif" font-size="92" font-weight="700" letter-spacing="-3" fill="#faf6ef">Marginal</text>
  <text x="414" y="400" font-family="Helvetica Neue, Helvetica, Arial, sans-serif" font-size="33" fill="#faf6ef" fill-opacity="0.66">The markdown editor for coding agents</text>
  <text x="414" y="560" font-family="Menlo, monospace" font-size="24" fill="#faf6ef" fill-opacity="0.4">marginal.md</text>
</svg>
